<svg id="레이어_1" data-name="레이어 1" xmlns="http://www.w3.org/2000/svg" viewBox="0 0 311.46 64.86"><defs><style>.cls-1{fill:#e40050;}.cls-2{fill:#1d1d1b;}</style></defs><path class="cls-1" d="M39.49,21a6.22,6.22,0,0,0-1.86,4.65,6.19,6.19,0,0,0,1.86,4.68,7,7,0,0,0,5.08,1.78,7,7,0,0,0,5.09-1.78,6.22,6.22,0,0,0,1.85-4.68A6.25,6.25,0,0,0,49.66,21a7,7,0,0,0-5.09-1.82A6.94,6.94,0,0,0,39.49,21Z"/><path class="cls-1" d="M60.57,13.69,50.2,4.28H14.66L4.28,13.69V29.9L16.2,18.45V6.67H19V18.45L31,29.9l-1.68,1.82L17.62,21,6,31.72,4.28,29.9V51.17l10.38,9.4h10.8V43.94H7V41.25H28.22V60.57h22l2.22-2V43.94H34V41.25H55.18V56.06l5.39-4.89Zm-1.52,5.57H51.24a8.94,8.94,0,0,1,2.22,2.86,8.06,8.06,0,0,1,.81,3.6,8.7,8.7,0,0,1-.71,3.51,8.46,8.46,0,0,1-2,2.82A9.36,9.36,0,0,1,48.51,34a11.29,11.29,0,0,1-7.88,0,9.36,9.36,0,0,1-3.06-1.92,8.46,8.46,0,0,1-2-2.82,8.7,8.7,0,0,1-.71-3.51,8,8,0,0,1,3-6.46H30.09V16.77H43.22V8.28H46v8.49H59.05Z"/><path class="cls-1" d="M52.7,64.86H12.16L0,53.83V11L12.16,0H52.7L64.86,11V53.83ZM12.8,63.2H52.06L63.2,53.1V11.76L52.06,1.66H12.8L1.66,11.76V53.1Z"/><path class="cls-2" d="M80.87,4.42a10.68,10.68,0,0,1,.81,2.46,14.61,14.61,0,0,1,.26,2.46,16.06,16.06,0,0,1-.08,1.71,15.43,15.43,0,0,1-.24,1.66,4.46,4.46,0,0,1,2,.86,8,8,0,0,1,1.43,1.55L86,16.6c.3.49.6,1,.89,1.48s.63,1,.94,1.49.61,1,.93,1.5l-3,2.26c-.37-.58-.71-1.13-1-1.65s-.59-1-.86-1.47-.57-.87-.83-1.29l-.76-1.21a5,5,0,0,0-.85-.95,4.38,4.38,0,0,0-1.06-.61,19.23,19.23,0,0,1-2.86,4.14,27.84,27.84,0,0,1-4.38,3.9l-2.34-3.33A23.82,23.82,0,0,0,74.09,18a15.43,15.43,0,0,0,2.09-2.78,11.72,11.72,0,0,0,1.07-2.85,13.75,13.75,0,0,0,.32-3,9.44,9.44,0,0,0-.72-3.52ZM99.74,36.53a8.54,8.54,0,0,1-2,2.66,8.81,8.81,0,0,1-3,1.74,10.87,10.87,0,0,1-3.62.6,11.14,11.14,0,0,1-3.68-.6,9.23,9.23,0,0,1-3-1.7A8.06,8.06,0,0,1,81.54,33a8.1,8.1,0,0,1,2.79-6.19,9.64,9.64,0,0,1,3-1.72,10.89,10.89,0,0,1,3.68-.62,10.74,10.74,0,0,1,3.66.62,9.65,9.65,0,0,1,3,1.72A8,8,0,0,1,100.51,33,7.68,7.68,0,0,1,99.74,36.53Zm-5.15-6.91a5.43,5.43,0,0,0-7.12,0A4.52,4.52,0,0,0,86.08,33a4.47,4.47,0,0,0,1.39,3.43,5.56,5.56,0,0,0,7.12,0A4.47,4.47,0,0,0,96,33,4.52,4.52,0,0,0,94.59,29.62Zm7.68-4.78h-4.1V15.9h-4V23H90V5h4.17v7.17h4V5h4.1Z"/><path class="cls-2" d="M123.38,17.58a8.28,8.28,0,0,1-4.21,1.81v2h1.75a28.51,28.51,0,0,0,4.83-.43A11.94,11.94,0,0,0,130,19.35V5h4.54v8.85h5.53v3.78h-5.53v4.18a6.22,6.22,0,0,1-.64,3,7.79,7.79,0,0,1-1.51,2,2,2,0,0,1,1.67.94,3.54,3.54,0,0,1,.36,1.93l-.56,4.51a1.83,1.83,0,0,1-.32.92,1.14,1.14,0,0,1-.95.31H116.42V37.1h13c.79,0,1.63,0,2.52-.08a16.53,16.53,0,0,0,2.81-.45l.83,3.28a17.06,17.06,0,0,1-3.48.74c-1,.08-2,.12-2.92.12H115.07a4,4,0,0,1-2.41-.64,2.7,2.7,0,0,1-.85-2.31V32H130v-1.6H111.81V26.77h16.38a4.52,4.52,0,0,0,1.08-1.5,8.15,8.15,0,0,0,.63-1.9,14.07,14.07,0,0,1-4,1.27A31,31,0,0,1,121,25H106.68V21.36h7.91V19.31a7.84,7.84,0,0,1-4-1.85A5.38,5.38,0,0,1,109,13.24a7,7,0,0,1,.21-1.78,5.61,5.61,0,0,1,.66-1.5h-3V6.56h7.71a2,2,0,0,0,.06-.35l.06-.39V5a4.86,4.86,0,0,0-.18-1.13c-.09-.34-.19-.68-.29-1l4.21-1.06c.11.44.21.87.3,1.31a6.56,6.56,0,0,1,.14,1.31,5.38,5.38,0,0,1-.12,1.19,3.88,3.88,0,0,1-.36,1h9.31V10h-3.42a7.18,7.18,0,0,1,.63,1.5,6.13,6.13,0,0,1,.24,1.78A5.33,5.33,0,0,1,123.38,17.58Zm-3.54-6.41a5.41,5.41,0,0,0-5.66,0,2.57,2.57,0,0,0-.94,2.07,2.57,2.57,0,0,0,.94,2.09,5.52,5.52,0,0,0,5.66,0,2.56,2.56,0,0,0,1-2.09A2.56,2.56,0,0,0,119.84,11.17Z"/><path class="cls-2" d="M143.67,6h12.8c1.38,0,2.27.35,2.69,1a4.6,4.6,0,0,1,.53,2.64,12.7,12.7,0,0,1-1.39,4.88A19.41,19.41,0,0,1,155.16,19a29.41,29.41,0,0,1-4.51,3.91,47.87,47.87,0,0,1-5.43,3.35l-2-3.74c1.38-.76,2.72-1.57,4-2.41a30.72,30.72,0,0,0,3.55-2.67,18.59,18.59,0,0,0,2.67-2.93A9,9,0,0,0,155,11.27c.16-.66.14-1.07-.06-1.25a1.22,1.22,0,0,0-.85-.27H143.67Zm8.9,29.52a1.33,1.33,0,0,0,.18.8.93.93,0,0,0,.74.23h9a30.8,30.8,0,0,0,4.37-.29,25.6,25.6,0,0,0,4.26-1l.95,3.52c-.87.3-1.67.55-2.38.74s-1.44.35-2.15.49-1.47.19-2.27.25-1.71.08-2.74.08h-10.1a5.13,5.13,0,0,1-3.25-.94A3.53,3.53,0,0,1,148,36.44v-9h4.53ZM159,14.14h7.32V5h4.53V28.86h-4.53v-11H159Z"/><path class="cls-2" d="M177.07,5.57h13.09a2.69,2.69,0,0,1,2.44,1,4.32,4.32,0,0,1,.54,2.72,13,13,0,0,1-1.37,4.88,19.52,19.52,0,0,1-3.08,4.43,28.87,28.87,0,0,1-4.52,3.89,40.75,40.75,0,0,1-5.55,3.28L176.68,22a36.59,36.59,0,0,0,3.73-2,25.15,25.15,0,0,0,3.38-2.48,18.33,18.33,0,0,0,2.73-2.93,11.66,11.66,0,0,0,1.77-3.5,2.06,2.06,0,0,0,0-1.32c-.13-.27-.44-.41-.92-.41H177.07ZM203,5v8.48h5.53v3.74H203v4.06a7.13,7.13,0,0,1-.85,3.56,8.69,8.69,0,0,1-2.29,2.63,8.62,8.62,0,0,1,1.45,2.5,8.18,8.18,0,0,1,.54,3,7.86,7.86,0,0,1-.78,3.51,8.72,8.72,0,0,1-2,2.72A9.34,9.34,0,0,1,196,41a10.34,10.34,0,0,1-3.61.62,10.65,10.65,0,0,1-3.68-.62,9.23,9.23,0,0,1-3-1.76,8.44,8.44,0,0,1-2-9.76,8.49,8.49,0,0,1,2-2.74,9.66,9.66,0,0,1,3-1.79,10.66,10.66,0,0,1,3.68-.63,9.86,9.86,0,0,1,2.48.31,12.9,12.9,0,0,1,2.29.8,4.27,4.27,0,0,0,1-1.69,8.3,8.3,0,0,0,.32-2.5V5Zm-7.14,24.37A4.62,4.62,0,0,0,192.35,28a4.72,4.72,0,0,0-4.94,5,4.71,4.71,0,0,0,1.38,3.55,4.92,4.92,0,0,0,3.56,1.33,4.7,4.7,0,0,0,3.47-1.33A4.8,4.8,0,0,0,197.16,33,4.94,4.94,0,0,0,195.82,29.37Z"/><path class="cls-1" d="M231.44,11.8H211V8.11h7.36a4.33,4.33,0,0,0,.45-1.25,4.84,4.84,0,0,0,0-1.58,6.83,6.83,0,0,0-.14-.67,7,7,0,0,0-.22-.8l4.42-1.35a8.88,8.88,0,0,1,.38,1.27A6,6,0,0,1,223.37,5a7,7,0,0,1-.2,1.66,7.16,7.16,0,0,1-.56,1.49h8.83Zm-2.33,11a6.75,6.75,0,0,1-1.85,2.22,8.5,8.5,0,0,1-2.76,1.37,11.68,11.68,0,0,1-3.32.47,12.08,12.08,0,0,1-3.36-.45,7.93,7.93,0,0,1-2.73-1.35,6.55,6.55,0,0,1-1.83-2.24,6.62,6.62,0,0,1-.67-3.05,6.67,6.67,0,0,1,.65-3,6.4,6.4,0,0,1,1.81-2.22,8.15,8.15,0,0,1,2.73-1.37,11.55,11.55,0,0,1,3.4-.47,9.92,9.92,0,0,1,6.18,1.86,6.17,6.17,0,0,1,2.45,5.19A6.28,6.28,0,0,1,229.11,22.83Zm-11.83,16.3a4.65,4.65,0,0,1-.88-2.85V29H221v6.4a1.44,1.44,0,0,0,.2.84.87.87,0,0,0,.75.27h9.47a29.49,29.49,0,0,0,4.23-.27,30.42,30.42,0,0,0,4.12-.92l.88,3.52A28,28,0,0,1,236.11,40a28.49,28.49,0,0,1-4.23.29H220.54C219,40.3,217.86,39.91,217.28,39.13Zm6.88-21.89a5.89,5.89,0,0,0-5.93,0A2.82,2.82,0,0,0,217,19.8a2.86,2.86,0,0,0,1.23,2.62,6,6,0,0,0,5.93,0,2.86,2.86,0,0,0,1.23-2.62A2.82,2.82,0,0,0,224.16,17.24Zm20.52,2h-5.53V30.09h-4.53V5h4.53V15.45h5.53Z"/><path class="cls-1" d="M260.43,29.27a26.9,26.9,0,0,0,6.35-.62,16.78,16.78,0,0,0,4.91-2.09V5.41h4.57V38.09h-4.57V30.42a18.86,18.86,0,0,1-5.07,1.92,27.66,27.66,0,0,1-6.47.7H247.27V29.27Zm6.76-10.35a8.65,8.65,0,0,1-2,3,9.19,9.19,0,0,1-3.09,1.89,11.33,11.33,0,0,1-3.91.65,11.66,11.66,0,0,1-4-.65,8.42,8.42,0,0,1-5.07-4.86,10.18,10.18,0,0,1-.72-3.92,9.93,9.93,0,0,1,.72-3.83,8.53,8.53,0,0,1,2-3,9.35,9.35,0,0,1,3.1-1.93,10.62,10.62,0,0,1,3.94-.7,10.51,10.51,0,0,1,3.89.7,8.71,8.71,0,0,1,5.07,4.9,9.76,9.76,0,0,1,.74,3.83A10.18,10.18,0,0,1,267.19,18.92Zm-5.27-8a4.9,4.9,0,0,0-3.71-1.52,5,5,0,0,0-3.74,1.52A5.64,5.64,0,0,0,253,15a5.57,5.57,0,0,0,1.47,4.23,5.24,5.24,0,0,0,3.74,1.39,5.15,5.15,0,0,0,3.71-1.39A5.61,5.61,0,0,0,263.38,15,5.68,5.68,0,0,0,261.92,10.9Z"/><path class="cls-1" d="M281.55,19.84h10.1c1.56,0,3.34-.06,5.33-.18a27.66,27.66,0,0,0,6.44-1.26l.72,3.53a17.76,17.76,0,0,1-5,1.21,50.74,50.74,0,0,1-5.51.31V28.2H289V23.45h-7.48Zm17-3.79a11.88,11.88,0,0,1-12.92,0,6.13,6.13,0,0,1-2.33-5,6.15,6.15,0,0,1,2.33-4.92,11.58,11.58,0,0,1,12.92,0A6.13,6.13,0,0,1,301,11.07,6.09,6.09,0,0,1,298.59,16.05Zm-7.18,19.29a1.23,1.23,0,0,0,.28.9,1.12,1.12,0,0,0,.84.29h9.34a40.34,40.34,0,0,0,4.42-.23,21.72,21.72,0,0,0,4.29-1l.88,3.56c-.88.31-1.67.54-2.39.72s-1.43.32-2.15.43a19.73,19.73,0,0,1-2.26.21c-.8,0-1.71,0-2.75,0H291.25a5.07,5.07,0,0,1-3.28-.94,3.6,3.6,0,0,1-1.13-2.92V29.56h4.57Zm3.84-26.59a6.41,6.41,0,0,0-6.2,0,2.57,2.57,0,0,0-1.26,2.32,2.57,2.57,0,0,0,1.26,2.33,6.55,6.55,0,0,0,6.2,0,2.56,2.56,0,0,0,1.25-2.33A2.56,2.56,0,0,0,295.25,8.75Zm15.13,22.49h-4.53V28.16h-6.72V24.72h6.72V5h4.53Z"/><path class="cls-2" d="M78.54,61.64h5.53v.87H77.65V51.44h.89Z"/><path class="cls-2" d="M86.53,51.43a.52.52,0,0,1,.43-.18.54.54,0,0,1,.43.18.65.65,0,0,1,.15.44.68.68,0,0,1-.15.45.54.54,0,0,1-.43.18.52.52,0,0,1-.43-.18.68.68,0,0,1-.15-.45A.65.65,0,0,1,86.53,51.43Zm.87,3.28v7.8h-.88v-7.8Z"/><path class="cls-2" d="M90.82,62.51V55.58H89.39v-.87h1.43V53.13A2.24,2.24,0,0,1,91.11,52a2.09,2.09,0,0,1,.76-.8,1.94,1.94,0,0,1,1-.3,2,2,0,0,1,1.38.56l-.58.71a1.32,1.32,0,0,0-.37-.26,1.1,1.1,0,0,0-.43-.08,1.12,1.12,0,0,0-.87.36,1.25,1.25,0,0,0-.34.92v1.58h2.22v.87H91.71v6.93Z"/><path class="cls-2" d="M95.75,56.63a3.4,3.4,0,0,1,1.19-1.43,3.32,3.32,0,0,1,1.88-.53,2.93,2.93,0,0,1,1.69.45,3.09,3.09,0,0,1,.86.81,8.57,8.57,0,0,1,.43.86,5.55,5.55,0,0,1,.29,1.84l0,.42H96.24a2.78,2.78,0,0,0,.7,1.91,2.52,2.52,0,0,0,1.88.7,2.64,2.64,0,0,0,1.45-.37,1.92,1.92,0,0,0,.75-.89l.73.4a2.76,2.76,0,0,1-1,1.24,3.23,3.23,0,0,1-1.88.51A3.32,3.32,0,0,1,96.94,62a3.4,3.4,0,0,1-1.19-1.43,5.1,5.1,0,0,1,0-4Zm4.82-.27a2,2,0,0,0-1.66-.75,2.63,2.63,0,0,0-1.87.65,2.75,2.75,0,0,0-.8,1.87h4.93A3,3,0,0,0,100.57,56.36Z"/><path class="cls-2" d="M116.09,62.51h-.87V57.28h-6v5.23h-.89V51.44h.89v4.94h6V51.44h.87Z"/><path class="cls-2" d="M118.93,56.63a3.31,3.31,0,0,1,1.18-1.43,3.34,3.34,0,0,1,1.88-.53,2.91,2.91,0,0,1,1.69.45,3,3,0,0,1,.86.81,8.57,8.57,0,0,1,.43.86,5.55,5.55,0,0,1,.29,1.84l0,.42h-5.83a2.78,2.78,0,0,0,.7,1.91,2.52,2.52,0,0,0,1.88.7,2.62,2.62,0,0,0,1.45-.37,1.94,1.94,0,0,0,.76-.89l.72.4a2.76,2.76,0,0,1-1,1.24,3.23,3.23,0,0,1-1.88.51,3.34,3.34,0,0,1-1.88-.53,3.31,3.31,0,0,1-1.18-1.43,5.1,5.1,0,0,1,0-4Zm4.81-.27a2,2,0,0,0-1.66-.75,2.63,2.63,0,0,0-1.87.65,2.75,2.75,0,0,0-.8,1.87h4.93A3,3,0,0,0,123.74,56.36Z"/><path class="cls-2" d="M127.52,56.7a3.37,3.37,0,0,1,1.19-1.42,3.26,3.26,0,0,1,1.87-.53,2.61,2.61,0,0,1,1.48.46,3.24,3.24,0,0,1,1.13,1.31V54.71h.87v7.8h-.87v-1.7a3.51,3.51,0,0,1-1.12,1.31,2.51,2.51,0,0,1-1.49.49,3.31,3.31,0,0,1-1.87-.53,3.4,3.4,0,0,1-1.19-1.43,4.76,4.76,0,0,1-.41-2A4.71,4.71,0,0,1,127.52,56.7Zm4.37,4.59a2.71,2.71,0,0,0,1-1,3.47,3.47,0,0,0,0-3.12,2.74,2.74,0,0,0-1-1.06,2.39,2.39,0,0,0-1.3-.37,2.36,2.36,0,0,0-1.91.83,3.75,3.75,0,0,0,0,4.31,2.52,2.52,0,0,0,3.21.46Z"/><path class="cls-2" d="M137.22,51.15V62.51h-.87V51.15Z"/><path class="cls-2" d="M143,62.35a1.8,1.8,0,0,1-.69.13,1.87,1.87,0,0,1-1-.26,2,2,0,0,1-.7-.73,2,2,0,0,1-.25-1V55.55h-1.2v-.89h1.2V52.24h.89v2.42h1.86v.89h-1.86v4.94a1.06,1.06,0,0,0,.27.77,1,1,0,0,0,.75.29,1,1,0,0,0,.36-.06.89.89,0,0,0,.29-.2l.61.67A1.75,1.75,0,0,1,143,62.35Z"/><path class="cls-2" d="M150,56.32a1.87,1.87,0,0,0-1.43-.57,1.91,1.91,0,0,0-1.11.34,2.31,2.31,0,0,0-.8.94,3.09,3.09,0,0,0-.3,1.39v4.09h-.89V51.15h.89v5.17a2.63,2.63,0,0,1,.86-1.12,2.26,2.26,0,0,1,1.4-.43A2.66,2.66,0,0,1,151,56.31a3.84,3.84,0,0,1,.38,1.74v4.46h-.88V58.07A2.49,2.49,0,0,0,150,56.32Z"/><path class="cls-2" d="M161.3,56.36l4.31,6.15h-1.06l-3.83-5.44-1.88,2.19v3.25H158V51.45h.89V58l5.55-6.55h1.11Z"/><path class="cls-2" d="M167.3,56.63a3.42,3.42,0,0,1,6.22,0,4.9,4.9,0,0,1,0,4A3.34,3.34,0,0,1,172.3,62a3.4,3.4,0,0,1-1.91.53,3.27,3.27,0,0,1-3.09-2,4.9,4.9,0,0,1,0-4Zm5,4.17a3.74,3.74,0,0,0,0-4.36,2.7,2.7,0,0,0-3.91,0,3.74,3.74,0,0,0,0,4.36,2.65,2.65,0,0,0,3.91,0Z"/><path class="cls-2" d="M177.75,55.14a2.57,2.57,0,0,1,1.5-.48v1A2.05,2.05,0,0,0,178,56a3.25,3.25,0,0,0-.95,1.12,3.06,3.06,0,0,0-.36,1.43v3.92h-.87v-7.8h.87v1.76A3,3,0,0,1,177.75,55.14Z"/><path class="cls-2" d="M180.84,56.63A3.31,3.31,0,0,1,182,55.2a3.34,3.34,0,0,1,1.88-.53,2.91,2.91,0,0,1,1.69.45,3,3,0,0,1,.86.81,8.57,8.57,0,0,1,.43.86,5.55,5.55,0,0,1,.29,1.84l0,.42h-5.83A2.78,2.78,0,0,0,182,61a2.52,2.52,0,0,0,1.88.7,2.62,2.62,0,0,0,1.45-.37,1.94,1.94,0,0,0,.76-.89l.72.4A2.76,2.76,0,0,1,185.78,62a3.23,3.23,0,0,1-1.88.51A3.34,3.34,0,0,1,182,62a3.31,3.31,0,0,1-1.18-1.43,5.1,5.1,0,0,1,0-4Zm4.81-.27a2,2,0,0,0-1.66-.75,2.63,2.63,0,0,0-1.87.65,2.75,2.75,0,0,0-.8,1.87h4.93A3,3,0,0,0,185.65,56.36Z"/><path class="cls-2" d="M189.43,56.7a3.37,3.37,0,0,1,1.19-1.42,3.26,3.26,0,0,1,1.87-.53,2.61,2.61,0,0,1,1.48.46,3.24,3.24,0,0,1,1.13,1.31V54.71H196v7.8h-.87v-1.7A3.51,3.51,0,0,1,194,62.12a2.51,2.51,0,0,1-1.49.49,3.31,3.31,0,0,1-1.87-.53,3.4,3.4,0,0,1-1.19-1.43,4.76,4.76,0,0,1-.41-2A4.71,4.71,0,0,1,189.43,56.7Zm4.37,4.59a2.71,2.71,0,0,0,1-1,3.47,3.47,0,0,0,0-3.12,2.74,2.74,0,0,0-1-1.06,2.39,2.39,0,0,0-1.3-.37,2.36,2.36,0,0,0-1.91.83,3.75,3.75,0,0,0,0,4.31,2.52,2.52,0,0,0,3.21.46Z"/><path class="cls-2" d="M203.13,56.32a1.85,1.85,0,0,0-1.45-.6,2.07,2.07,0,0,0-1.16.34,2.38,2.38,0,0,0-.82.85,2.08,2.08,0,0,0-.29,1v4.58h-.89v-7.8h.89v1.53a3.08,3.08,0,0,1,.88-1.08,2.26,2.26,0,0,1,1.41-.44,2.75,2.75,0,0,1,1.49.41,2.78,2.78,0,0,1,1,1.08,3,3,0,0,1,.36,1.46v4.84h-.87V57.82A2.19,2.19,0,0,0,203.13,56.32Z"/><path class="cls-2" d="M220.16,62.51h-.87V53.39l-3.43,6.67h-.67l-3.44-6.67v9.12h-.87V51.44h.87l3.78,7.35,3.74-7.35h.89Z"/><path class="cls-2" d="M223,56.63a3.33,3.33,0,0,1,1.19-1.43,3.3,3.3,0,0,1,1.88-.53,2.88,2.88,0,0,1,1.68.45,3,3,0,0,1,.86.81,8.57,8.57,0,0,1,.43.86,5.55,5.55,0,0,1,.29,1.84v.42h-5.83a2.74,2.74,0,0,0,.7,1.91,2.49,2.49,0,0,0,1.88.7,2.6,2.6,0,0,0,1.44-.37,1.94,1.94,0,0,0,.76-.89l.72.4A2.8,2.8,0,0,1,228,62a3.66,3.66,0,0,1-3.76,0A3.33,3.33,0,0,1,223,60.59a5.1,5.1,0,0,1,0-4Zm4.81-.27a1.94,1.94,0,0,0-1.66-.75,2.64,2.64,0,0,0-1.87.65,2.7,2.7,0,0,0-.79,1.87h4.92A3,3,0,0,0,227.84,56.36Z"/><path class="cls-2" d="M231.63,56.65a3.28,3.28,0,0,1,3.11-2,2.8,2.8,0,0,1,1.59.5,3.13,3.13,0,0,1,1.1,1.37V51.15h.88V62.51h-.88V60.75a3.22,3.22,0,0,1-1.11,1.39,2.74,2.74,0,0,1-1.58.5,3.34,3.34,0,0,1-1.9-.54,3.37,3.37,0,0,1-1.21-1.45,4.75,4.75,0,0,1-.42-2A4.68,4.68,0,0,1,231.63,56.65Zm4.48,4.66a2.84,2.84,0,0,0,1-1.11,3.43,3.43,0,0,0,0-3.1,2.84,2.84,0,0,0-1-1.11,2.35,2.35,0,0,0-1.31-.41,2.39,2.39,0,0,0-2,.86,3.84,3.84,0,0,0,0,4.42,2.39,2.39,0,0,0,2,.86A2.35,2.35,0,0,0,236.11,61.31Z"/><path class="cls-2" d="M240.91,51.43a.6.6,0,0,1,.86,0,.65.65,0,0,1,.15.44.68.68,0,0,1-.15.45.6.6,0,0,1-.86,0,.68.68,0,0,1-.15-.45A.65.65,0,0,1,240.91,51.43Zm.87,3.28v7.8h-.88v-7.8Z"/><path class="cls-2" d="M248.5,61.43a3.2,3.2,0,0,0,.94-.66l.67.67a3.88,3.88,0,0,1-1.22.88,3.43,3.43,0,0,1-1.44.32,3.62,3.62,0,0,1-2-.56,3.55,3.55,0,0,1-1.31-1.48,4.75,4.75,0,0,1-.45-2.07,4.68,4.68,0,0,1,.45-2.06A3.55,3.55,0,0,1,245.43,55a3.7,3.7,0,0,1,2-.55,3.43,3.43,0,0,1,1.44.32,3.88,3.88,0,0,1,1.22.88l-.67.65a3.06,3.06,0,0,0-.94-.67,2.51,2.51,0,0,0-1.08-.24,2.9,2.9,0,0,0-1.56.41,2.69,2.69,0,0,0-1,1.13,4.07,4.07,0,0,0,0,3.21,2.69,2.69,0,0,0,1,1.13,2.9,2.9,0,0,0,1.56.41A2.51,2.51,0,0,0,248.5,61.43Z"/><path class="cls-2" d="M251.91,51.43a.54.54,0,0,1,.43-.18.52.52,0,0,1,.43.18.66.66,0,0,1,.16.44.69.69,0,0,1-.16.45.52.52,0,0,1-.43.18.54.54,0,0,1-.43-.18.68.68,0,0,1-.15-.45A.65.65,0,0,1,251.91,51.43Zm.87,3.28v7.8h-.87v-7.8Z"/><path class="cls-2" d="M259.86,56.32a1.84,1.84,0,0,0-1.44-.6,2.08,2.08,0,0,0-1.17.34,2.27,2.27,0,0,0-.81.85,2,2,0,0,0-.29,1v4.58h-.89v-7.8h.89v1.53a3,3,0,0,1,.88-1.08,2.21,2.21,0,0,1,1.4-.44,2.73,2.73,0,0,1,1.49.41,2.81,2.81,0,0,1,1,1.08,3,3,0,0,1,.36,1.46v4.84h-.88V57.82A2.19,2.19,0,0,0,259.86,56.32Z"/><path class="cls-2" d="M263.65,56.63a3.19,3.19,0,0,1,3.06-2,2.93,2.93,0,0,1,1.69.45,3.09,3.09,0,0,1,.86.81,8.57,8.57,0,0,1,.43.86,5.55,5.55,0,0,1,.29,1.84l0,.42h-5.83a2.78,2.78,0,0,0,.7,1.91,2.52,2.52,0,0,0,1.88.7,2.62,2.62,0,0,0,1.45-.37,1.92,1.92,0,0,0,.75-.89l.73.4A2.76,2.76,0,0,1,268.59,62a3.23,3.23,0,0,1-1.88.51,3.19,3.19,0,0,1-3.06-2,5,5,0,0,1,0-4Zm4.81-.27a2,2,0,0,0-1.66-.75,2.63,2.63,0,0,0-1.87.65,2.75,2.75,0,0,0-.8,1.87h4.93A3,3,0,0,0,268.46,56.36Z"/><path class="cls-2" d="M278.53,61.88a5.05,5.05,0,0,1-1.82-2.06,6.64,6.64,0,0,1,0-5.69,5.12,5.12,0,0,1,1.82-2.06,5,5,0,0,1,2.73-.75,4.75,4.75,0,0,1,2,.43A5.21,5.21,0,0,1,284.93,53l-.67.63a4.22,4.22,0,0,0-5.28-.71,4.1,4.1,0,0,0-1.5,1.69,5.8,5.8,0,0,0,0,4.8,4.06,4.06,0,0,0,1.5,1.7,4.12,4.12,0,0,0,2.26.62,4,4,0,0,0,1.66-.35,4.17,4.17,0,0,0,1.36-1l.67.63a5.21,5.21,0,0,1-1.66,1.22,4.75,4.75,0,0,1-2,.44A5,5,0,0,1,278.53,61.88Z"/><path class="cls-2" d="M288,51.15V62.51h-.87V51.15Z"/><path class="cls-2" d="M290.46,51.43a.6.6,0,0,1,.86,0,.65.65,0,0,1,.15.44.68.68,0,0,1-.15.45.6.6,0,0,1-.86,0,.68.68,0,0,1-.15-.45A.65.65,0,0,1,290.46,51.43Zm.87,3.28v7.8h-.88v-7.8Z"/><path class="cls-2" d="M298.41,56.32a1.84,1.84,0,0,0-1.44-.6,2.08,2.08,0,0,0-1.17.34,2.27,2.27,0,0,0-.81.85,2,2,0,0,0-.3,1v4.58h-.89v-7.8h.89v1.53a3.11,3.11,0,0,1,.89-1.08,2.21,2.21,0,0,1,1.4-.44,2.73,2.73,0,0,1,1.49.41,2.81,2.81,0,0,1,1,1.08,3.15,3.15,0,0,1,.35,1.46v4.84H299V57.82A2.19,2.19,0,0,0,298.41,56.32Z"/><path class="cls-2" d="M302.12,51.43a.52.52,0,0,1,.43-.18.54.54,0,0,1,.43.18.65.65,0,0,1,.15.44.68.68,0,0,1-.15.45.54.54,0,0,1-.43.18.52.52,0,0,1-.43-.18.68.68,0,0,1-.15-.45A.65.65,0,0,1,302.12,51.43Zm.87,3.28v7.8h-.88v-7.8Z"/><path class="cls-2" d="M309.71,61.43a3.2,3.2,0,0,0,.94-.66l.67.67a3.88,3.88,0,0,1-1.22.88,3.43,3.43,0,0,1-1.44.32,3.62,3.62,0,0,1-2-.56,3.55,3.55,0,0,1-1.31-1.48,4.75,4.75,0,0,1-.45-2.07,4.68,4.68,0,0,1,.45-2.06A3.55,3.55,0,0,1,306.64,55a3.7,3.7,0,0,1,2-.55,3.43,3.43,0,0,1,1.44.32,3.88,3.88,0,0,1,1.22.88l-.67.65a3.06,3.06,0,0,0-.94-.67,2.51,2.51,0,0,0-1.08-.24,2.9,2.9,0,0,0-1.56.41,2.69,2.69,0,0,0-1,1.13,4.07,4.07,0,0,0,0,3.21,2.69,2.69,0,0,0,1,1.13,2.9,2.9,0,0,0,1.56.41A2.51,2.51,0,0,0,309.71,61.43Z"/></svg>